<?xml version="1.0" encoding="UTF-8"?><svg id="Capa_1" xmlns="http://www.w3.org/2000/svg" viewBox="0 0 233.73 166.66"><defs><style>.cls-1{fill:none;stroke:#ae7657;stroke-width:1.32px;}.cls-1,.cls-2{stroke-miterlimit:10;}.cls-2{fill:#fff;stroke:#e29986;stroke-width:1.61px;}</style></defs><path class="cls-1" d="m233.16,144.11c-13.26-21.87-78.88-49.38-78.88-49.38h-76.56c7.95,13.92,32.15,17.89,49.05,17.56"/><path class="cls-1" d="m134.4,103.67c-7.29,3.31-10.94,13.92-10.94,28.83"/><path class="cls-1" d="m83.03,165.72c-16.57-40.43-44.08-68.34-63.3-72.98l48.06,72.91c3.65,1.99,99.42-4.97,108.37-10.27"/><path class="cls-1" d="m67.79,165.65L1.5,105.99c19.55-2.65,39.42,18.9,39.42,18.9"/><path class="cls-1" d="m79.46,132.86c2.98-6.96,45.46-14.77,45.46-14.77"/><path class="cls-1" d="m49.85,149.5c-.44-.22-34.86-17-34.86-17,7.29-1.99,17.39,1.88,17.39,1.88"/><path class="cls-1" d="m51.39,114.73l-.73-21.99c10.39,8.37,14.97,15.25,21.76,29.66,12.26,25.52,33.22,18.64,48.39,11.43,12.59-5.98,58.83-19.02,80.04-15.87"/><path class="cls-2" d="m72.55,11.42v111.68c34.6,26.28,89.78,11.82,98.1,0V11.42c-21.9-18.39-95.91-9.2-98.1,0Z"/><path class="cls-2" d="m170.72,28.58v6.7c12.12.05,23.12,12.92,23.12,29.87s-11,32.5-23.12,32.56v7.19c14.88,0,30.15-19.25,30.15-40.06s-15.27-36.27-30.15-36.27Z"/><ellipse class="cls-2" cx="121.6" cy="11.97" rx="38.98" ry="5.26"/></svg>